<?xml version="1.0" encoding="UTF-8" standalone="no"?>
<!-- Created with Inkscape (http://www.inkscape.org/) -->

<svg
   version="1.0"
   width="747.34698"
   height="1046.2856"
   id="svg2"
   sodipodi:version="0.32"
   inkscape:version="1.4.3 (0d15f75, 2025-12-25)"
   sodipodi:docname="Cards-A-Spade-inkscape.svg"
   inkscape:output_extension="org.inkscape.output.svg.inkscape"
   xmlns:inkscape="http://www.inkscape.org/namespaces/inkscape"
   xmlns:sodipodi="http://sodipodi.sourceforge.net/DTD/sodipodi-0.dtd"
   xmlns="http://www.w3.org/2000/svg"
   xmlns:svg="http://www.w3.org/2000/svg"
   xmlns:rdf="http://www.w3.org/1999/02/22-rdf-syntax-ns#"
   xmlns:cc="http://creativecommons.org/ns#"
   xmlns:dc="http://purl.org/dc/elements/1.1/">
  <metadata
     id="metadata20">
    <rdf:RDF>
      <cc:Work
         rdf:about="">
        <dc:format>image/svg+xml</dc:format>
        <dc:type
           rdf:resource="http://purl.org/dc/dcmitype/StillImage" />
      </cc:Work>
    </rdf:RDF>
  </metadata>
  <sodipodi:namedview
     inkscape:window-height="991"
     inkscape:window-width="1920"
     inkscape:pageshadow="2"
     inkscape:pageopacity="0.0"
     guidetolerance="10.0"
     gridtolerance="10.0"
     objecttolerance="10.0"
     borderopacity="1.0"
     bordercolor="#666666"
     pagecolor="#ffffff"
     id="base"
     showgrid="false"
     inkscape:zoom="0.44156202"
     inkscape:cx="373.67344"
     inkscape:cy="524.27516"
     inkscape:window-x="-9"
     inkscape:window-y="-9"
     inkscape:current-layer="g2430"
     inkscape:showpageshadow="2"
     inkscape:pagecheckerboard="0"
     inkscape:deskcolor="#d1d1d1"
     inkscape:window-maximized="1" />
  <defs
     id="defs4">
    <inkscape:perspective
       sodipodi:type="inkscape:persp3d"
       inkscape:vp_x="0 : 523.14282 : 1"
       inkscape:vp_y="0 : 1000 : 0"
       inkscape:vp_z="747.34698 : 523.14282 : 1"
       inkscape:persp3d-origin="373.67349 : 348.76188 : 1"
       id="perspective22" />
  </defs>
  <g
     transform="translate(2.2448993,-0.6479052)"
     id="layer1">
    <g
       transform="translate(-2.0407968,-11.714273)"
       id="g2775">
      <g
         id="g2430">
        <g
           id="g2443">
          <path
             style="font-size:144px;line-height:0%;font-family:'Arial Narrow';-inkscape-font-specification:'Arial Narrow';text-align:center;text-anchor:middle;stroke-width:1px"
             d="M 21.91861,159.04405 54.402985,55.965927 H 66.426422 L 101.02017,159.04405 H 88.223297 L 78.379547,127.8253 H 43.082672 l -9.28125,31.21875 z M 46.317047,116.71593 H 74.934235 L 66.145172,88.169052 q -4.078125,-13.148437 -5.976562,-21.375 -1.617188,9.914063 -4.570313,19.6875 z"
             id="text2396"
             aria-label="A" />
          <path
             style="font-size:144px;line-height:0%;font-family:'Arial Narrow';-inkscape-font-specification:'Arial Narrow';text-align:center;text-anchor:middle;stroke-width:1px"
             d="m 61.539703,212.48935 q 1.828125,7.59375 5.625,13.57031 3.796875,5.97656 13.5,14.83594 9.773438,8.78906 12.375,13.57031 2.601563,4.71094 2.601563,9.5625 0,6.67969 -4.5,11.17969 -4.5,4.5 -10.828125,4.5 -10.96875,0 -17.929688,-13.35938 0.07031,10.33594 2.671875,16.45313 2.671875,6.04687 8.4375,9.5625 5.765625,3.44531 15.398438,4.07812 l 0.492187,2.60157 h -55.6875 l 0.492188,-2.60157 q 12.9375,0 20.039062,-7.52343 7.171875,-7.59375 6.890625,-22.57032 -3.164062,6.67969 -7.875,10.05469 -4.640625,3.30469 -10.476562,3.30469 -6.328125,0 -10.898438,-4.57031 -4.570312,-4.57032 -4.570312,-10.82813 0,-5.20312 2.25,-9.35156 3.164062,-5.83594 11.039062,-12.23438 9.84375,-8.08593 15.257813,-16.10156 3.9375,-5.83594 5.695312,-14.13281 z"
             id="text2702"
             aria-label="♠" />
          <g
             transform="matrix(-1,0,0,-1,744.17051,1070.3281)"
             id="use2757">
            <path
               style="font-size:144px;line-height:0%;font-family:'Arial Narrow';-inkscape-font-specification:'Arial Narrow';text-align:center;text-anchor:middle;stroke-width:1px"
               d="M 19.150341,158.36212 51.634716,55.283997 H 63.658154 L 98.251904,158.36212 H 85.455029 l -9.84375,-31.21875 H 40.314404 l -9.28125,31.21875 z M 43.548779,116.034 H 72.165966 L 63.376904,87.487122 q -4.078125,-13.148438 -5.976563,-21.375 -1.617187,9.914062 -4.570312,19.6875 z"
               id="text2418"
               aria-label="A" />
            <path
               style="font-size:144px;line-height:0%;font-family:'Arial Narrow';-inkscape-font-specification:'Arial Narrow';text-align:center;text-anchor:middle;stroke-width:1px"
               d="m 58.771435,211.80743 q 1.828125,7.59375 5.625,13.57032 3.796875,5.97656 13.5,14.83593 9.773437,8.78907 12.375,13.57032 2.601562,4.71093 2.601562,9.5625 0,6.67968 -4.5,11.17968 -4.5,4.5 -10.828125,4.5 -10.96875,0 -17.929687,-13.35937 0.07031,10.33594 2.671875,16.45312 2.671875,6.04688 8.4375,9.5625 5.765625,3.44532 15.398437,4.07813 l 0.492188,2.60156 h -55.6875 l 0.492187,-2.60156 q 12.9375,0 20.039063,-7.52344 7.171875,-7.59375 6.890625,-22.57031 -3.164063,6.67969 -7.875,10.05469 -4.640625,3.30468 -10.476563,3.30468 -6.328125,0 -10.898437,-4.57031 -4.570313,-4.57031 -4.570313,-10.82812 0,-5.20313 2.25,-9.35157 3.164063,-5.83593 11.039063,-12.23437 9.84375,-8.08594 15.257812,-16.10156 3.9375,-5.83594 5.695313,-14.13282 z"
               id="text2422"
               aria-label="♠" />
          </g>
        </g>
        <path
           d="m 373.71353,385.23645 q 6.34766,26.36719 19.53125,47.11914 13.1836,20.75195 46.875,51.51367 33.93555,30.51758 42.96875,46.875 9.0332,16.35742 9.0332,33.20313 0,23.4375 -15.625,39.0625 -15.625,15.625 -38.08593,15.625 -19.04297,0 -34.66797,-11.71875 -15.38086,-11.96289 -27.34375,-34.66797 0.24414,35.88867 9.27734,57.12891 9.27735,20.99609 29.29688,33.20312 20.26367,11.96289 53.71093,14.16016 l 1.70899,9.0332 H 276.7897 l 1.95313,-9.0332 q 44.92187,0 69.58008,-26.12305 24.90234,-26.36719 23.92578,-78.36914 -10.98633,23.19336 -27.34375,34.91211 -16.11328,11.47461 -36.6211,11.47461 -21.97265,0 -37.84179,-15.86914 -15.625,-15.86914 -15.625,-38.08594 0,-17.82227 8.05664,-32.22656 10.98633,-20.01953 35.64453,-40.28321 24.6582,-20.26367 36.37695,-33.44726 17.82227,-20.26367 25.87891,-36.13281 8.30078,-15.86914 12.93945,-37.35352 z"
           id="text2783"
           style="font-size:500px;line-height:0%;font-family:Arial;text-align:center;text-anchor:middle;stroke-width:1px"
           aria-label="♠" />
      </g>
    </g>
  </g>
</svg>
