<?xml version="1.0" encoding="UTF-8" standalone="no"?>
<!-- Created with Inkscape (http://www.inkscape.org/) -->

<svg
   version="1.0"
   width="747.34698"
   height="1046.2856"
   id="svg2"
   sodipodi:version="0.32"
   inkscape:version="1.4.3 (0d15f75, 2025-12-25)"
   sodipodi:docname="Cards-2-Spade.svg"
   inkscape:output_extension="org.inkscape.output.svg.inkscape"
   xmlns:inkscape="http://www.inkscape.org/namespaces/inkscape"
   xmlns:sodipodi="http://sodipodi.sourceforge.net/DTD/sodipodi-0.dtd"
   xmlns="http://www.w3.org/2000/svg"
   xmlns:svg="http://www.w3.org/2000/svg"
   xmlns:rdf="http://www.w3.org/1999/02/22-rdf-syntax-ns#"
   xmlns:cc="http://creativecommons.org/ns#"
   xmlns:dc="http://purl.org/dc/elements/1.1/">
  <metadata
     id="metadata18">
    <rdf:RDF>
      <cc:Work
         rdf:about="">
        <dc:format>image/svg+xml</dc:format>
        <dc:type
           rdf:resource="http://purl.org/dc/dcmitype/StillImage" />
      </cc:Work>
    </rdf:RDF>
  </metadata>
  <sodipodi:namedview
     inkscape:window-height="991"
     inkscape:window-width="1920"
     inkscape:pageshadow="2"
     inkscape:pageopacity="0.0"
     guidetolerance="10.0"
     gridtolerance="10.0"
     objecttolerance="10.0"
     borderopacity="1.0"
     bordercolor="#666666"
     pagecolor="#ffffff"
     id="base"
     showgrid="false"
     inkscape:zoom="0.44156202"
     inkscape:cx="373.67344"
     inkscape:cy="524.27516"
     inkscape:window-x="-9"
     inkscape:window-y="-9"
     inkscape:current-layer="g2751"
     inkscape:showpageshadow="2"
     inkscape:pagecheckerboard="0"
     inkscape:deskcolor="#d1d1d1"
     inkscape:window-maximized="1" />
  <defs
     id="defs4">
    <inkscape:perspective
       sodipodi:type="inkscape:persp3d"
       inkscape:vp_x="0 : 523.14282 : 1"
       inkscape:vp_y="0 : 1000 : 0"
       inkscape:vp_z="747.34698 : 523.14282 : 1"
       inkscape:persp3d-origin="373.67349 : 348.76188 : 1"
       id="perspective20" />
  </defs>
  <g
     transform="translate(2.2448993,-0.6479052)"
     id="layer1">
    <g
       transform="translate(-2.0407968,-11.714273)"
       id="g2775">
      <g
         id="g2797">
        <g
           transform="translate(2.7682687,0.6819287)"
           id="g2751">
          <path
             style="font-size:144px;line-height:0%;font-family:'Arial Narrow';-inkscape-font-specification:'Arial Narrow';text-align:center;text-anchor:middle;stroke-width:1px"
             d="m 85.244091,146.19806 v 12.16406 H 29.345654 q -0.210938,-7.38281 4.429687,-16.52344 4.710938,-9.14062 17.15625,-21.58593 14.554688,-14.48438 19.054688,-22.359378 4.5,-7.945313 4.5,-14.765625 0,-7.875 -4.640625,-12.796875 -4.570313,-4.992188 -11.320313,-4.992188 -7.242187,0 -11.882812,5.34375 -4.640625,5.34375 -4.640625,15.328125 l -10.6875,-1.335937 q 1.125,-14.835938 8.367187,-22.289063 7.3125,-7.523437 19.195313,-7.523437 12.9375,0 19.546875,8.71875 6.679687,8.71875 6.679687,19.828125 0,9.84375 -5.203125,18.914063 -5.203125,9 -19.757812,24.04687 -9.28125,9.49219 -12.023438,12.9375 -2.671875,3.44532 -4.359375,6.89063 z"
             id="text2396"
             aria-label="2" />
          <path
             style="font-size:144px;line-height:0%;font-family:'Arial Narrow';-inkscape-font-specification:'Arial Narrow';text-align:center;text-anchor:middle;stroke-width:1px"
             d="m 58.771435,211.80743 q 1.828125,7.59375 5.625,13.57032 3.796875,5.97656 13.5,14.83593 9.773437,8.78907 12.375,13.57032 2.601562,4.71093 2.601562,9.5625 0,6.67968 -4.5,11.17968 -4.5,4.5 -10.828125,4.5 -10.96875,0 -17.929687,-13.35937 0.07031,10.33594 2.671875,16.45312 2.671875,6.04688 8.4375,9.5625 5.765625,3.44532 15.398437,4.07813 l 0.492188,2.60156 h -55.6875 l 0.492187,-2.60156 q 12.9375,0 20.039063,-7.52344 7.171875,-7.59375 6.890625,-22.57031 -3.164063,6.67969 -7.875,10.05469 -4.640625,3.30468 -10.476563,3.30468 -6.328125,0 -10.898437,-4.57031 -4.570313,-4.57031 -4.570313,-10.82812 0,-5.20313 2.25,-9.35157 3.164063,-5.83593 11.039063,-12.23437 9.84375,-8.08594 15.257812,-16.10156 3.9375,-5.83594 5.695313,-14.13282 z"
             id="text2702"
             aria-label="♠" />
        </g>
        <g
           transform="rotate(180,372.08526,535.16404)"
           id="use2757">
          <path
             style="font-size:144px;line-height:0%;font-family:'Arial Narrow';-inkscape-font-specification:'Arial Narrow';text-align:center;text-anchor:middle;stroke-width:1px"
             d="m 85.244091,146.19806 v 12.16406 H 29.345654 q -0.210938,-7.38281 4.429687,-16.52344 4.710938,-9.14062 17.15625,-21.58593 14.554688,-14.48438 19.054688,-22.359378 4.5,-7.945313 4.5,-14.765625 0,-7.875 -4.640625,-12.796875 -4.570313,-4.992188 -11.320313,-4.992188 -7.242187,0 -11.882812,5.34375 -4.640625,5.34375 -4.640625,15.328125 l -10.6875,-1.335937 q 1.125,-14.835938 8.367187,-22.289063 7.3125,-7.523437 19.195313,-7.523437 12.9375,0 19.546875,8.71875 6.679687,8.71875 6.679687,19.828125 0,9.84375 -5.203125,18.914063 -5.203125,9 -19.757812,24.04687 -9.28125,9.49219 -12.023438,12.9375 -2.671875,3.44532 -4.359375,6.89063 z"
             id="path1"
             aria-label="2" />
          <path
             style="font-size:144px;line-height:0%;font-family:'Arial Narrow';-inkscape-font-specification:'Arial Narrow';text-align:center;text-anchor:middle;stroke-width:1px"
             d="m 58.771435,211.80743 q 1.828125,7.59375 5.625,13.57032 3.796875,5.97656 13.5,14.83593 9.773437,8.78907 12.375,13.57032 2.601562,4.71093 2.601562,9.5625 0,6.67968 -4.5,11.17968 -4.5,4.5 -10.828125,4.5 -10.96875,0 -17.929687,-13.35937 0.07031,10.33594 2.671875,16.45312 2.671875,6.04688 8.4375,9.5625 5.765625,3.44532 15.398437,4.07813 l 0.492188,2.60156 h -55.6875 l 0.492187,-2.60156 q 12.9375,0 20.039063,-7.52344 7.171875,-7.59375 6.890625,-22.57031 -3.164063,6.67969 -7.875,10.05469 -4.640625,3.30468 -10.476563,3.30468 -6.328125,0 -10.898437,-4.57031 -4.570313,-4.57031 -4.570313,-10.82812 0,-5.20313 2.25,-9.35157 3.164063,-5.83593 11.039063,-12.23437 9.84375,-8.08594 15.257812,-16.10156 3.9375,-5.83594 5.695313,-14.13282 z"
             id="path2"
             aria-label="♠" />
        </g>
      </g>
      <g
         transform="translate(66.406249,0)"
         id="g2807">
        <path
           d="m 307.18521,160.37073 q 3.17383,13.18359 9.76563,23.55957 6.59179,10.37597 23.4375,25.75683 16.96777,15.25879 21.48437,23.4375 4.5166,8.17871 4.5166,16.60157 0,11.71875 -7.8125,19.53125 -7.8125,7.8125 -19.04297,7.8125 -9.52148,0 -17.33398,-5.85938 -7.69043,-5.98144 -13.67188,-17.33398 0.12207,17.94433 4.63868,28.56445 4.63867,10.49805 14.64843,16.60156 10.13184,5.98145 26.85547,7.08008 l 0.85449,4.5166 H 258.7233 l 0.97656,-4.5166 q 22.46094,0 34.79004,-13.06152 12.45117,-13.1836 11.96289,-39.18457 -5.49316,11.59668 -13.67188,17.45605 -8.05664,5.73731 -18.31054,5.73731 -10.98633,0 -18.9209,-7.93457 -7.8125,-7.93457 -7.8125,-19.04297 0,-8.91114 4.02832,-16.11328 5.49316,-10.00977 17.82226,-20.14161 12.32911,-10.13183 18.18848,-16.72363 8.91113,-10.13183 12.93945,-18.0664 4.1504,-7.93457 6.46973,-18.67676 z"
           id="text2783"
           style="font-size:250px;line-height:0%;font-family:Arial;text-align:center;text-anchor:middle;stroke-width:1px"
           aria-label="♠" />
        <path
           d="m 307.18521,910.63927 q 3.17383,-13.18359 9.76563,-23.55957 6.59179,-10.37597 23.4375,-25.75683 16.96777,-15.25879 21.48437,-23.4375 4.5166,-8.17871 4.5166,-16.60157 0,-11.71875 -7.8125,-19.53125 -7.8125,-7.8125 -19.04297,-7.8125 -9.52148,0 -17.33398,5.85938 -7.69043,5.98144 -13.67188,17.33398 0.12207,-17.94433 4.63868,-28.56445 4.63867,-10.49805 14.64843,-16.60156 10.13184,-5.98145 26.85547,-7.08008 l 0.85449,-4.5166 H 258.7233 l 0.97656,4.5166 q 22.46094,0 34.79004,13.06152 12.45117,13.1836 11.96289,39.18457 -5.49316,-11.59668 -13.67188,-17.45605 -8.05664,-5.73731 -18.31054,-5.73731 -10.98633,0 -18.9209,7.93457 -7.8125,7.93457 -7.8125,19.04297 0,8.91114 4.02832,16.11328 5.49316,10.00977 17.82226,20.14161 12.32911,10.13183 18.18848,16.72363 8.91113,10.13183 12.93945,18.0664 4.1504,7.93457 6.46973,18.67676 z"
           id="use2805"
           style="font-size:250px;line-height:0%;font-family:Arial;text-align:center;text-anchor:middle;stroke-width:1px"
           aria-label="♠" />
      </g>
    </g>
  </g>
</svg>
