<?xml version="1.0" encoding="UTF-8" standalone="no"?>
<!-- Created with Inkscape (http://www.inkscape.org/) -->

<svg
   version="1.0"
   width="747.34698"
   height="1046.2856"
   id="svg2"
   sodipodi:docname="Cards-3-Spade.svg"
   inkscape:version="1.4.3 (0d15f75, 2025-12-25)"
   xmlns:inkscape="http://www.inkscape.org/namespaces/inkscape"
   xmlns:sodipodi="http://sodipodi.sourceforge.net/DTD/sodipodi-0.dtd"
   xmlns="http://www.w3.org/2000/svg"
   xmlns:svg="http://www.w3.org/2000/svg">
  <sodipodi:namedview
     id="namedview1"
     pagecolor="#ffffff"
     bordercolor="#000000"
     borderopacity="0.25"
     inkscape:showpageshadow="2"
     inkscape:pageopacity="0.0"
     inkscape:pagecheckerboard="0"
     inkscape:deskcolor="#d1d1d1"
     inkscape:zoom="0.73880398"
     inkscape:cx="373.57676"
     inkscape:cy="523.14282"
     inkscape:window-width="1920"
     inkscape:window-height="991"
     inkscape:window-x="-9"
     inkscape:window-y="-9"
     inkscape:window-maximized="1"
     inkscape:current-layer="svg2" />
  <defs
     id="defs4" />
  <g
     transform="translate(2.2448993,-0.6479052)"
     id="layer1">
    <g
       transform="translate(-2.0407968,-11.714273)"
       id="g2775">
      <g
         id="g2797">
        <g
           transform="translate(2.7682687,0.6819287)"
           id="g2751">
          <path
             style="font-size:144px;font-family:'Arial Narrow';-inkscape-font-specification:'Arial Narrow';text-align:center;text-anchor:middle;stroke-width:1px"
             d="m 30.611279,131.15118 10.40625,-1.6875 q 3.234375,20.25 16.382812,20.25 7.101563,0 12.304688,-5.97656 5.203125,-6.04687 5.203125,-15.60937 0,-9 -4.78125,-14.48438 -4.78125,-5.48437 -11.742188,-5.48437 -2.953125,0 -7.3125,1.40625 l 1.195313,-11.109378 1.617187,0.140625 q 7.664063,0 12.445313,-4.710938 4.78125,-4.710937 4.78125,-12.585937 0,-7.242188 -4.007813,-11.601563 -4.007812,-4.429687 -9.773437,-4.429687 -5.976563,0 -10.125,4.640625 -4.078125,4.570312 -5.203125,13.921875 l -10.335938,-2.25 q 1.96875,-13.21875 8.859375,-19.96875 6.890625,-6.75 16.664063,-6.75 10.265625,0 17.4375,7.59375 7.171875,7.59375 7.171875,19.125 0,7.03125 -3.09375,12.445312 -3.023438,5.414063 -8.507813,8.507816 5.0625,1.40625 8.367188,4.64062 3.304687,3.23438 5.34375,8.64844 2.039062,5.41406 2.039062,12.09375 0,14.20312 -8.367187,23.27344 -8.367188,9 -20.039063,9 -10.828125,0 -18.351562,-7.875 -7.523438,-7.875 -8.578125,-21.16407 z"
             id="text2396"
             aria-label="3" />
          <path
             style="font-size:144px;font-family:'Arial Narrow';-inkscape-font-specification:'Arial Narrow';text-align:center;text-anchor:middle;stroke-width:1px"
             d="m 58.771435,211.80743 q 1.828125,7.59375 5.625,13.57032 3.796875,5.97656 13.5,14.83593 9.773437,8.78907 12.375,13.57032 2.601562,4.71093 2.601562,9.5625 0,6.67968 -4.5,11.17968 -4.5,4.5 -10.828125,4.5 -10.96875,0 -17.929687,-13.35937 0.07031,10.33594 2.671875,16.45312 2.671875,6.04688 8.4375,9.5625 5.765625,3.44532 15.398437,4.07813 l 0.492188,2.60156 h -55.6875 l 0.492187,-2.60156 q 12.9375,0 20.039063,-7.52344 7.171875,-7.59375 6.890625,-22.57031 -3.164063,6.67969 -7.875,10.05469 -4.640625,3.30468 -10.476563,3.30468 -6.328125,0 -10.898437,-4.57031 -4.570313,-4.57031 -4.570313,-10.82812 0,-5.20313 2.25,-9.35157 3.164063,-5.83593 11.039063,-12.23437 9.84375,-8.08594 15.257812,-16.10156 3.9375,-5.83594 5.695313,-14.13282 z"
             id="text2702"
             aria-label="♠" />
        </g>
        <g
           transform="rotate(180,372.08526,535.16404)"
           id="use2757">
          <path
             style="font-size:144px;font-family:'Arial Narrow';-inkscape-font-specification:'Arial Narrow';text-align:center;text-anchor:middle;stroke-width:1px"
             d="m 30.611279,131.15118 10.40625,-1.6875 q 3.234375,20.25 16.382812,20.25 7.101563,0 12.304688,-5.97656 5.203125,-6.04687 5.203125,-15.60937 0,-9 -4.78125,-14.48438 -4.78125,-5.48437 -11.742188,-5.48437 -2.953125,0 -7.3125,1.40625 l 1.195313,-11.109378 1.617187,0.140625 q 7.664063,0 12.445313,-4.710938 4.78125,-4.710937 4.78125,-12.585937 0,-7.242188 -4.007813,-11.601563 -4.007812,-4.429687 -9.773437,-4.429687 -5.976563,0 -10.125,4.640625 -4.078125,4.570312 -5.203125,13.921875 l -10.335938,-2.25 q 1.96875,-13.21875 8.859375,-19.96875 6.890625,-6.75 16.664063,-6.75 10.265625,0 17.4375,7.59375 7.171875,7.59375 7.171875,19.125 0,7.03125 -3.09375,12.445312 -3.023438,5.414063 -8.507813,8.507816 5.0625,1.40625 8.367188,4.64062 3.304687,3.23438 5.34375,8.64844 2.039062,5.41406 2.039062,12.09375 0,14.20312 -8.367187,23.27344 -8.367188,9 -20.039063,9 -10.828125,0 -18.351562,-7.875 -7.523438,-7.875 -8.578125,-21.16407 z"
             id="path1"
             aria-label="3" />
          <path
             style="font-size:144px;font-family:'Arial Narrow';-inkscape-font-specification:'Arial Narrow';text-align:center;text-anchor:middle;stroke-width:1px"
             d="m 58.771435,211.80743 q 1.828125,7.59375 5.625,13.57032 3.796875,5.97656 13.5,14.83593 9.773437,8.78907 12.375,13.57032 2.601562,4.71093 2.601562,9.5625 0,6.67968 -4.5,11.17968 -4.5,4.5 -10.828125,4.5 -10.96875,0 -17.929687,-13.35937 0.07031,10.33594 2.671875,16.45312 2.671875,6.04688 8.4375,9.5625 5.765625,3.44532 15.398437,4.07813 l 0.492188,2.60156 h -55.6875 l 0.492187,-2.60156 q 12.9375,0 20.039063,-7.52344 7.171875,-7.59375 6.890625,-22.57031 -3.164063,6.67969 -7.875,10.05469 -4.640625,3.30468 -10.476563,3.30468 -6.328125,0 -10.898437,-4.57031 -4.570313,-4.57031 -4.570313,-10.82812 0,-5.20313 2.25,-9.35157 3.164063,-5.83593 11.039063,-12.23437 9.84375,-8.08594 15.257812,-16.10156 3.9375,-5.83594 5.695313,-14.13282 z"
             id="path2"
             aria-label="♠" />
        </g>
      </g>
      <path
         d="m 373.59146,160.37073 q 3.17383,13.18359 9.76563,23.55957 6.59179,10.37597 23.4375,25.75683 16.96777,15.25879 21.48437,23.4375 4.5166,8.17871 4.5166,16.60157 0,11.71875 -7.8125,19.53125 -7.8125,7.8125 -19.04297,7.8125 -9.52148,0 -17.33398,-5.85938 -7.69043,-5.98144 -13.67188,-17.33398 0.12207,17.94433 4.63868,28.56445 4.63867,10.49805 14.64843,16.60156 10.13184,5.98145 26.85547,7.08008 l 0.85449,4.5166 h -96.80175 l 0.97656,-4.5166 q 22.46094,0 34.79004,-13.06152 12.45117,-13.1836 11.96289,-39.18457 -5.49316,11.59668 -13.67188,17.45605 -8.05664,5.73731 -18.31054,5.73731 -10.98633,0 -18.9209,-7.93457 -7.8125,-7.93457 -7.8125,-19.04297 0,-8.91114 4.02832,-16.11328 5.49316,-10.00977 17.82226,-20.14161 12.32911,-10.13183 18.18848,-16.72363 8.91113,-10.13183 12.93945,-18.0664 4.1504,-7.93457 6.46973,-18.67676 z"
         id="text2783"
         style="font-size:250px;font-family:Arial;text-align:center;text-anchor:middle;stroke-width:1px"
         aria-label="♠" />
      <path
         d="m 373.59146,910.63927 q 3.17383,-13.18359 9.76563,-23.55957 6.59179,-10.37597 23.4375,-25.75683 16.96777,-15.25879 21.48437,-23.4375 4.5166,-8.17871 4.5166,-16.60157 0,-11.71875 -7.8125,-19.53125 -7.8125,-7.8125 -19.04297,-7.8125 -9.52148,0 -17.33398,5.85938 -7.69043,5.98144 -13.67188,17.33398 0.12207,-17.94433 4.63868,-28.56445 4.63867,-10.49805 14.64843,-16.60156 10.13184,-5.98145 26.85547,-7.08008 l 0.85449,-4.5166 h -96.80175 l 0.97656,4.5166 q 22.46094,0 34.79004,13.06152 12.45117,13.1836 11.96289,39.18457 -5.49316,-11.59668 -13.67188,-17.45605 -8.05664,-5.73731 -18.31054,-5.73731 -10.98633,0 -18.9209,7.93457 -7.8125,7.93457 -7.8125,19.04297 0,8.91114 4.02832,16.11328 5.49316,10.00977 17.82226,20.14161 12.32911,10.13183 18.18848,16.72363 8.91113,10.13183 12.93945,18.0664 4.1504,7.93457 6.46973,18.67676 z"
         id="use2805"
         style="font-size:250px;font-family:Arial;text-align:center;text-anchor:middle;stroke-width:1px"
         aria-label="♠" />
      <path
         d="m 373.59146,460.37073 q 3.17383,13.18359 9.76563,23.55957 6.59179,10.37597 23.4375,25.75683 16.96777,15.25879 21.48437,23.4375 4.5166,8.17871 4.5166,16.60157 0,11.71875 -7.8125,19.53125 -7.8125,7.8125 -19.04297,7.8125 -9.52148,0 -17.33398,-5.85938 -7.69043,-5.98144 -13.67188,-17.33398 0.12207,17.94433 4.63868,28.56445 4.63867,10.49805 14.64843,16.60156 10.13184,5.98145 26.85547,7.08008 l 0.85449,4.5166 h -96.80175 l 0.97656,-4.5166 q 22.46094,0 34.79004,-13.06152 12.45117,-13.1836 11.96289,-39.18457 -5.49316,11.59668 -13.67188,17.45605 -8.05664,5.73731 -18.31054,5.73731 -10.98633,0 -18.9209,-7.93457 -7.8125,-7.93457 -7.8125,-19.04297 0,-8.91114 4.02832,-16.11328 5.49316,-10.00977 17.82226,-20.14161 12.32911,-10.13183 18.18848,-16.72363 8.91113,-10.13183 12.93945,-18.0664 4.1504,-7.93457 6.46973,-18.67676 z"
         id="use2835"
         style="font-size:250px;font-family:Arial;text-align:center;text-anchor:middle;stroke-width:1px"
         aria-label="♠" />
    </g>
  </g>
</svg>
