<?xml version="1.0" encoding="UTF-8" standalone="no"?>
<!-- Created with Inkscape (http://www.inkscape.org/) -->

<svg
   width="747.34698"
   height="1046.2856"
   id="svg2"
   sodipodi:version="0.32"
   inkscape:version="1.4.3 (0d15f75, 2025-12-25)"
   version="1.0"
   sodipodi:docname="Cards-4-Heart.svg"
   inkscape:output_extension="org.inkscape.output.svg.inkscape"
   xmlns:inkscape="http://www.inkscape.org/namespaces/inkscape"
   xmlns:sodipodi="http://sodipodi.sourceforge.net/DTD/sodipodi-0.dtd"
   xmlns="http://www.w3.org/2000/svg"
   xmlns:svg="http://www.w3.org/2000/svg"
   xmlns:rdf="http://www.w3.org/1999/02/22-rdf-syntax-ns#"
   xmlns:cc="http://creativecommons.org/ns#"
   xmlns:dc="http://purl.org/dc/elements/1.1/">
  <defs
     id="defs4">
    <inkscape:perspective
       sodipodi:type="inkscape:persp3d"
       inkscape:vp_x="0 : 526.18109 : 1"
       inkscape:vp_y="0 : 1000 : 0"
       inkscape:vp_z="744.09448 : 526.18109 : 1"
       inkscape:persp3d-origin="372.04724 : 350.78739 : 1"
       id="perspective10" />
    <inkscape:perspective
       id="perspective2390"
       inkscape:persp3d-origin="372.04724 : 350.78739 : 1"
       inkscape:vp_z="744.09448 : 526.18109 : 1"
       inkscape:vp_y="0 : 1000 : 0"
       inkscape:vp_x="0 : 526.18109 : 1"
       sodipodi:type="inkscape:persp3d" />
  </defs>
  <sodipodi:namedview
     id="base"
     pagecolor="#ffffff"
     bordercolor="#666666"
     borderopacity="1.0"
     gridtolerance="10000"
     guidetolerance="10"
     objecttolerance="10"
     inkscape:pageopacity="0.0"
     inkscape:pageshadow="2"
     inkscape:zoom="0.35"
     inkscape:cx="-371.42857"
     inkscape:cy="187.14286"
     inkscape:document-units="px"
     inkscape:current-layer="g2393"
     showgrid="false"
     showguides="true"
     inkscape:guide-bbox="true"
     inkscape:window-width="1920"
     inkscape:window-height="991"
     inkscape:window-x="-9"
     inkscape:window-y="-9"
     inkscape:showpageshadow="2"
     inkscape:pagecheckerboard="0"
     inkscape:deskcolor="#d1d1d1"
     inkscape:window-maximized="1" />
  <metadata
     id="metadata7">
    <rdf:RDF>
      <cc:Work
         rdf:about="">
        <dc:format>image/svg+xml</dc:format>
        <dc:type
           rdf:resource="http://purl.org/dc/dcmitype/StillImage" />
      </cc:Work>
    </rdf:RDF>
  </metadata>
  <g
     inkscape:label="Layer 1"
     inkscape:groupmode="layer"
     id="layer1"
     transform="translate(2.2448993,-0.6479052)">
    <g
       id="g2775"
       transform="translate(-2.0407968,-11.714273)">
      <g
         id="g2797">
        <g
           id="g2751"
           transform="translate(2.7682687,0.6819287)">
          <path
             style="font-size:144px;line-height:1.25;font-family:'Arial Narrow';-inkscape-font-specification:'Arial Narrow';text-align:center;text-anchor:middle;fill:#ff0000;stroke-width:1px"
             d="M 66.488235,158.36212 V 133.68243 H 29.855423 V 122.08087 L 68.456985,55.283997 h 8.4375 v 66.796873 h 11.460938 v 11.60156 H 76.894485 v 24.67969 z m 0,-36.28125 V 75.604309 l -26.4375,46.476561 z"
             id="text2396"
             aria-label="4" />
          <path
             style="font-size:144px;line-height:1.25;font-family:'Arial Narrow';-inkscape-font-specification:'Arial Narrow';text-align:center;text-anchor:middle;fill:#ff0000;stroke-width:1px"
             d="m 59.175735,300.04962 q -2.179687,-8.29687 -6.257812,-15.53906 -4.007813,-7.3125 -15.609375,-22.64063 -8.507813,-11.25 -10.476563,-14.27343 -3.234375,-4.92188 -4.710937,-9 -1.40625,-4.14844 -1.40625,-8.36719 0,-7.80469 5.203125,-13.07813 5.203125,-5.27343 12.9375,-5.27343 7.664062,0 13.359375,5.48437 4.289062,4.07813 6.960937,12.16406 2.53125,-8.92968 7.945313,-13.28906 5.414062,-4.42969 11.953125,-4.42969 7.664062,0 12.9375,5.20313 5.34375,5.20312 5.34375,12.375 0,6.39844 -3.09375,13.21875 -3.023438,6.82031 -11.953125,18.07031 -11.53125,14.55469 -16.242188,22.92188 -4.710937,8.36718 -6.890625,16.45312 z"
             id="text2702"
             aria-label="♥" />
        </g>
        <g
           id="use2757"
           transform="rotate(180,372.08526,535.16404)">
          <path
             style="font-size:144px;line-height:1.25;font-family:'Arial Narrow';-inkscape-font-specification:'Arial Narrow';text-align:center;text-anchor:middle;fill:#ff0000;stroke-width:1px"
             d="M 66.488235,158.36212 V 133.68243 H 29.855423 V 122.08087 L 68.456985,55.283997 h 8.4375 v 66.796873 h 11.460938 v 11.60156 H 76.894485 v 24.67969 z m 0,-36.28125 V 75.604309 l -26.4375,46.476561 z"
             id="path1"
             aria-label="4" />
          <path
             style="font-size:144px;line-height:1.25;font-family:'Arial Narrow';-inkscape-font-specification:'Arial Narrow';text-align:center;text-anchor:middle;fill:#ff0000;stroke-width:1px"
             d="m 59.175735,300.04962 q -2.179687,-8.29687 -6.257812,-15.53906 -4.007813,-7.3125 -15.609375,-22.64063 -8.507813,-11.25 -10.476563,-14.27343 -3.234375,-4.92188 -4.710937,-9 -1.40625,-4.14844 -1.40625,-8.36719 0,-7.80469 5.203125,-13.07813 5.203125,-5.27343 12.9375,-5.27343 7.664062,0 13.359375,5.48437 4.289062,4.07813 6.960937,12.16406 2.53125,-8.92968 7.945313,-13.28906 5.414062,-4.42969 11.953125,-4.42969 7.664062,0 12.9375,5.20313 5.34375,5.20312 5.34375,12.375 0,6.39844 -3.09375,13.21875 -3.023438,6.82031 -11.953125,18.07031 -11.53125,14.55469 -16.242188,22.92188 -4.710937,8.36718 -6.890625,16.45312 z"
             id="path2"
             aria-label="♥" />
        </g>
      </g>
      <g
         id="g2393"
         transform="translate(-7.8125009,0)">
        <g
           id="g2394"
           transform="translate(74.21875,0)">
          <g
             id="g2857"
             transform="translate(-140,0)">
            <path
               style="font-size:250px;line-height:1.25;font-family:Arial;text-align:center;text-anchor:middle;fill:#ff0000;stroke-width:1px"
               d="m 307.30728,313.56897 q -3.78418,-14.4043 -10.86426,-26.97754 -6.958,-12.69531 -27.09961,-39.30664 -14.7705,-19.53125 -18.18847,-24.78027 -5.61524,-8.54493 -8.17871,-15.625 -2.44141,-7.20215 -2.44141,-14.52637 0,-13.54981 9.0332,-22.70508 9.03321,-9.15527 22.33887,-9.15527 13.42774,0 23.31543,9.52148 7.44629,7.08008 12.08496,21.11817 4.02832,-13.79395 11.35254,-20.9961 10.13184,-9.76562 23.4375,-9.76562 13.18359,0 22.33887,9.15527 9.15527,9.0332 9.15527,21.60645 0,10.98632 -5.37109,22.94922 -5.3711,11.84082 -20.75196,31.12792 -20.01953,25.26856 -29.1748,41.50391 -7.20215,12.81738 -10.98633,26.85547 z"
               id="text2783"
               aria-label="♥" />
            <path
               style="font-size:250px;line-height:1.25;font-family:Arial;text-align:center;text-anchor:middle;fill:#ff0000;stroke-width:1px"
               d="m 307.30728,757.44103 q -3.78418,14.4043 -10.86426,26.97754 -6.958,12.69531 -27.09961,39.30664 -14.7705,19.53125 -18.18847,24.78027 -5.61524,8.54493 -8.17871,15.625 -2.44141,7.20215 -2.44141,14.52637 0,13.54981 9.0332,22.70508 9.03321,9.15527 22.33887,9.15527 13.42774,0 23.31543,-9.52148 7.44629,-7.08008 12.08496,-21.11817 4.02832,13.79395 11.35254,20.9961 10.13184,9.76562 23.4375,9.76562 13.18359,0 22.33887,-9.15527 9.15527,-9.0332 9.15527,-21.60645 0,-10.98632 -5.37109,-22.94922 -5.3711,-11.84082 -20.75196,-31.12792 -20.01953,-25.26856 -29.1748,-41.50391 -7.20215,-12.81738 -10.98633,-26.85547 z"
               id="use2805"
               aria-label="♥" />
          </g>
          <g
             id="use2862"
             transform="translate(140)">
            <path
               style="font-size:250px;line-height:1.25;font-family:Arial;text-align:center;text-anchor:middle;fill:#ff0000;stroke-width:1px"
               d="m 307.30728,313.56897 q -3.78418,-14.4043 -10.86426,-26.97754 -6.958,-12.69531 -27.09961,-39.30664 -14.7705,-19.53125 -18.18847,-24.78027 -5.61524,-8.54493 -8.17871,-15.625 -2.44141,-7.20215 -2.44141,-14.52637 0,-13.54981 9.0332,-22.70508 9.03321,-9.15527 22.33887,-9.15527 13.42774,0 23.31543,9.52148 7.44629,7.08008 12.08496,21.11817 4.02832,-13.79395 11.35254,-20.9961 10.13184,-9.76562 23.4375,-9.76562 13.18359,0 22.33887,9.15527 9.15527,9.0332 9.15527,21.60645 0,10.98632 -5.37109,22.94922 -5.3711,11.84082 -20.75196,31.12792 -20.01953,25.26856 -29.1748,41.50391 -7.20215,12.81738 -10.98633,26.85547 z"
               id="path3"
               aria-label="♥" />
            <path
               style="font-size:250px;line-height:1.25;font-family:Arial;text-align:center;text-anchor:middle;fill:#ff0000;stroke-width:1px"
               d="m 307.30728,757.44103 q -3.78418,14.4043 -10.86426,26.97754 -6.958,12.69531 -27.09961,39.30664 -14.7705,19.53125 -18.18847,24.78027 -5.61524,8.54493 -8.17871,15.625 -2.44141,7.20215 -2.44141,14.52637 0,13.54981 9.0332,22.70508 9.03321,9.15527 22.33887,9.15527 13.42774,0 23.31543,-9.52148 7.44629,-7.08008 12.08496,-21.11817 4.02832,13.79395 11.35254,20.9961 10.13184,9.76562 23.4375,9.76562 13.18359,0 22.33887,-9.15527 9.15527,-9.0332 9.15527,-21.60645 0,-10.98632 -5.37109,-22.94922 -5.3711,-11.84082 -20.75196,-31.12792 -20.01953,-25.26856 -29.1748,-41.50391 -7.20215,-12.81738 -10.98633,-26.85547 z"
               id="path4"
               aria-label="♥" />
          </g>
        </g>
      </g>
    </g>
  </g>
</svg>
