<?xml version="1.0" encoding="UTF-8" standalone="no"?>
<!-- Created with Inkscape (http://www.inkscape.org/) -->

<svg
   width="747.34698"
   height="1046.2856"
   id="svg2"
   sodipodi:version="0.32"
   inkscape:version="1.4.3 (0d15f75, 2025-12-25)"
   version="1.0"
   sodipodi:docname="R1.svg"
   inkscape:output_extension="org.inkscape.output.svg.inkscape"
   xmlns:inkscape="http://www.inkscape.org/namespaces/inkscape"
   xmlns:sodipodi="http://sodipodi.sourceforge.net/DTD/sodipodi-0.dtd"
   xmlns="http://www.w3.org/2000/svg"
   xmlns:svg="http://www.w3.org/2000/svg"
   xmlns:rdf="http://www.w3.org/1999/02/22-rdf-syntax-ns#"
   xmlns:cc="http://creativecommons.org/ns#"
   xmlns:dc="http://purl.org/dc/elements/1.1/">
  <defs
     id="defs4">
    <inkscape:perspective
       sodipodi:type="inkscape:persp3d"
       inkscape:vp_x="0 : 526.18109 : 1"
       inkscape:vp_y="0 : 1000 : 0"
       inkscape:vp_z="744.09448 : 526.18109 : 1"
       inkscape:persp3d-origin="372.04724 : 350.78739 : 1"
       id="perspective10" />
    <inkscape:perspective
       id="perspective2390"
       inkscape:persp3d-origin="372.04724 : 350.78739 : 1"
       inkscape:vp_z="744.09448 : 526.18109 : 1"
       inkscape:vp_y="0 : 1000 : 0"
       inkscape:vp_x="0 : 526.18109 : 1"
       sodipodi:type="inkscape:persp3d" />
  </defs>
  <sodipodi:namedview
     id="base"
     pagecolor="#ffffff"
     bordercolor="#666666"
     borderopacity="1.0"
     gridtolerance="10000"
     guidetolerance="10"
     objecttolerance="10"
     inkscape:pageopacity="0.0"
     inkscape:pageshadow="2"
     inkscape:zoom="0.49497475"
     inkscape:cx="-52.527932"
     inkscape:cy="607.10168"
     inkscape:document-units="px"
     inkscape:current-layer="g2775"
     showgrid="false"
     showguides="true"
     inkscape:guide-bbox="true"
     inkscape:window-width="1920"
     inkscape:window-height="991"
     inkscape:window-x="-9"
     inkscape:window-y="-9"
     inkscape:showpageshadow="2"
     inkscape:pagecheckerboard="0"
     inkscape:deskcolor="#d1d1d1"
     inkscape:window-maximized="1" />
  <metadata
     id="metadata7">
    <rdf:RDF>
      <cc:Work
         rdf:about="">
        <dc:format>image/svg+xml</dc:format>
        <dc:type
           rdf:resource="http://purl.org/dc/dcmitype/StillImage" />
      </cc:Work>
    </rdf:RDF>
  </metadata>
  <g
     inkscape:label="Layer 1"
     inkscape:groupmode="layer"
     id="layer1"
     transform="translate(2.2448993,-0.6479052)">
    <g
       id="g2775"
       transform="translate(-2.0407968,-11.714273)">
      <g
         id="g2797">
        <g
           id="g2751"
           transform="translate(2.7682687,0.6819287)">
          <path
             style="font-size:144px;line-height:1.25;font-family:'Arial Narrow';-inkscape-font-specification:'Arial Narrow';text-align:center;text-anchor:middle;fill:#ff0000;stroke-width:1px"
             d="M 23.070263,158.36212 55.554638,55.283997 H 67.578075 L 102.17183,158.36212 H 89.37495 L 79.5312,127.14337 H 44.234325 l -9.28125,31.21875 z M 47.4687,116.034 H 76.085888 L 67.296825,87.487122 q -4.078125,-13.148438 -5.976562,-21.375 -1.617188,9.914062 -4.570313,19.6875 z"
             id="text2396"
             aria-label="A" />
          <path
             style="font-size:144px;line-height:1.25;font-family:'Arial Narrow';-inkscape-font-specification:'Arial Narrow';text-align:center;text-anchor:middle;fill:#ff0000;stroke-width:1px"
             d="m 62.761673,300.04962 q -2.179688,-8.29687 -6.257813,-15.53906 -4.007812,-7.3125 -15.609375,-22.64063 -8.507812,-11.25 -10.476562,-14.27343 -3.234375,-4.92188 -4.710938,-9 -1.40625,-4.14844 -1.40625,-8.36719 0,-7.80469 5.203125,-13.07813 5.203125,-5.27343 12.9375,-5.27343 7.664063,0 13.359375,5.48437 4.289063,4.07813 6.960938,12.16406 2.53125,-8.92968 7.945312,-13.28906 5.414063,-4.42969 11.953125,-4.42969 7.664063,0 12.9375,5.20313 5.34375,5.20312 5.34375,12.375 0,6.39844 -3.09375,13.21875 -3.023437,6.82031 -11.953125,18.07031 -11.53125,14.55469 -16.242187,22.92188 -4.710938,8.36718 -6.890625,16.45312 z"
             id="text2702"
             aria-label="♥" />
        </g>
        <g
           id="use2757"
           transform="rotate(180,372.08526,535.16404)">
          <path
             style="font-size:144px;line-height:1.25;font-family:'Arial Narrow';-inkscape-font-specification:'Arial Narrow';text-align:center;text-anchor:middle;fill:#ff0000;stroke-width:1px"
             d="M 23.070263,158.36212 55.554638,55.283997 H 67.578075 L 102.17183,158.36212 H 89.37495 L 79.5312,127.14337 H 44.234325 l -9.28125,31.21875 z M 47.4687,116.034 H 76.085888 L 67.296825,87.487122 q -4.078125,-13.148438 -5.976562,-21.375 -1.617188,9.914062 -4.570313,19.6875 z"
             id="path1"
             aria-label="A" />
          <path
             style="font-size:144px;line-height:1.25;font-family:'Arial Narrow';-inkscape-font-specification:'Arial Narrow';text-align:center;text-anchor:middle;fill:#ff0000;stroke-width:1px"
             d="m 62.761673,300.04962 q -2.179688,-8.29687 -6.257813,-15.53906 -4.007812,-7.3125 -15.609375,-22.64063 -8.507812,-11.25 -10.476562,-14.27343 -3.234375,-4.92188 -4.710938,-9 -1.40625,-4.14844 -1.40625,-8.36719 0,-7.80469 5.203125,-13.07813 5.203125,-5.27343 12.9375,-5.27343 7.664063,0 13.359375,5.48437 4.289063,4.07813 6.960938,12.16406 2.53125,-8.92968 7.945312,-13.28906 5.414063,-4.42969 11.953125,-4.42969 7.664063,0 12.9375,5.20313 5.34375,5.20312 5.34375,12.375 0,6.39844 -3.09375,13.21875 -3.023437,6.82031 -11.953125,18.07031 -11.53125,14.55469 -16.242187,22.92188 -4.710938,8.36718 -6.890625,16.45312 z"
             id="path2"
             aria-label="♥" />
        </g>
      </g>
      <path
         style="font-size:500px;line-height:1.25;font-family:Arial;text-align:center;text-anchor:middle;fill:#ff0000;stroke-width:1px"
         d="m 373.95767,691.63293 q -7.56836,-28.80859 -21.72851,-53.95507 -13.91602,-25.39063 -54.19922,-78.61328 -29.54102,-39.0625 -36.37696,-49.56055 -11.23046,-17.08985 -16.35742,-31.25 -4.88281,-14.4043 -4.88281,-29.05274 0,-27.09961 18.06641,-45.41015 18.0664,-18.31055 44.67773,-18.31055 26.85547,0 46.63086,19.04297 14.89258,14.16016 24.16992,42.23633 8.05664,-27.58789 22.70508,-41.99219 20.26367,-19.53125 46.875,-19.53125 26.36719,0 44.67773,18.31055 18.31055,18.0664 18.31055,43.21289 0,21.97265 -10.74219,45.89844 -10.74218,23.68164 -41.5039,62.25585 -40.03906,50.53711 -58.34961,83.00782 -14.4043,25.63476 -21.97266,53.71093 z"
         id="text2783"
         aria-label="♥" />
    </g>
  </g>
</svg>
