<?xml version="1.0" encoding="UTF-8" standalone="no"?>
<!-- Created with Inkscape (http://www.inkscape.org/) -->

<svg
   width="747.34698"
   height="1046.2856"
   id="svg2"
   sodipodi:version="0.32"
   inkscape:version="1.4.3 (0d15f75, 2025-12-25)"
   version="1.0"
   sodipodi:docname="Cards-3-Heart.svg"
   inkscape:output_extension="org.inkscape.output.svg.inkscape"
   xmlns:inkscape="http://www.inkscape.org/namespaces/inkscape"
   xmlns:sodipodi="http://sodipodi.sourceforge.net/DTD/sodipodi-0.dtd"
   xmlns="http://www.w3.org/2000/svg"
   xmlns:svg="http://www.w3.org/2000/svg"
   xmlns:rdf="http://www.w3.org/1999/02/22-rdf-syntax-ns#"
   xmlns:cc="http://creativecommons.org/ns#"
   xmlns:dc="http://purl.org/dc/elements/1.1/">
  <defs
     id="defs4">
    <inkscape:perspective
       sodipodi:type="inkscape:persp3d"
       inkscape:vp_x="0 : 526.18109 : 1"
       inkscape:vp_y="0 : 1000 : 0"
       inkscape:vp_z="744.09448 : 526.18109 : 1"
       inkscape:persp3d-origin="372.04724 : 350.78739 : 1"
       id="perspective10" />
    <inkscape:perspective
       id="perspective2390"
       inkscape:persp3d-origin="372.04724 : 350.78739 : 1"
       inkscape:vp_z="744.09448 : 526.18109 : 1"
       inkscape:vp_y="0 : 1000 : 0"
       inkscape:vp_x="0 : 526.18109 : 1"
       sodipodi:type="inkscape:persp3d" />
  </defs>
  <sodipodi:namedview
     id="base"
     pagecolor="#ffffff"
     bordercolor="#666666"
     borderopacity="1.0"
     gridtolerance="10000"
     guidetolerance="10"
     objecttolerance="10"
     inkscape:pageopacity="0.0"
     inkscape:pageshadow="2"
     inkscape:zoom="0.35"
     inkscape:cx="-277.14286"
     inkscape:cy="301.42857"
     inkscape:document-units="px"
     inkscape:current-layer="g2775"
     showgrid="false"
     showguides="true"
     inkscape:guide-bbox="true"
     inkscape:window-width="1920"
     inkscape:window-height="991"
     inkscape:window-x="-9"
     inkscape:window-y="-9"
     inkscape:showpageshadow="2"
     inkscape:pagecheckerboard="0"
     inkscape:deskcolor="#d1d1d1"
     inkscape:window-maximized="1" />
  <metadata
     id="metadata7">
    <rdf:RDF>
      <cc:Work
         rdf:about="">
        <dc:format>image/svg+xml</dc:format>
        <dc:type
           rdf:resource="http://purl.org/dc/dcmitype/StillImage" />
      </cc:Work>
    </rdf:RDF>
  </metadata>
  <g
     inkscape:label="Layer 1"
     inkscape:groupmode="layer"
     id="layer1"
     transform="translate(2.2448993,-0.6479052)">
    <g
       id="g2775"
       transform="translate(-2.0407968,-11.714273)">
      <g
         id="g2797">
        <g
           id="g2751"
           transform="translate(2.7682687,0.6819287)"
           style="fill:#ff0000">
          <path
             style="font-size:144px;line-height:1.25;font-family:'Arial Narrow';-inkscape-font-specification:'Arial Narrow';text-align:center;text-anchor:middle;stroke-width:1px"
             d="m 30.751904,131.15118 10.40625,-1.6875 q 3.234375,20.25 16.382812,20.25 7.101563,0 12.304688,-5.97656 5.203125,-6.04687 5.203125,-15.60937 0,-9 -4.78125,-14.48438 -4.78125,-5.48437 -11.742188,-5.48437 -2.953125,0 -7.3125,1.40625 l 1.195313,-11.109378 1.617187,0.140625 q 7.664063,0 12.445313,-4.710938 4.78125,-4.710937 4.78125,-12.585937 0,-7.242188 -4.007813,-11.601563 -4.007812,-4.429687 -9.773437,-4.429687 -5.976563,0 -10.125,4.640625 -4.078125,4.570312 -5.203125,13.921875 l -10.335938,-2.25 q 1.96875,-13.21875 8.859375,-19.96875 6.890625,-6.75 16.664063,-6.75 10.265625,0 17.4375,7.59375 7.171875,7.59375 7.171875,19.125 0,7.03125 -3.09375,12.445312 -3.023438,5.414063 -8.507813,8.507816 5.0625,1.40625 8.367188,4.64062 3.304687,3.23438 5.34375,8.64844 2.039062,5.41406 2.039062,12.09375 0,14.20312 -8.367187,23.27344 -8.367188,9 -20.039063,9 -10.828125,0 -18.351562,-7.875 -7.523438,-7.875 -8.578125,-21.16407 z"
             id="text2396"
             aria-label="3" />
          <path
             style="font-size:144px;line-height:1.25;font-family:'Arial Narrow';-inkscape-font-specification:'Arial Narrow';text-align:center;text-anchor:middle;stroke-width:1px"
             d="m 58.490185,300.04962 q -2.179688,-8.29687 -6.257813,-15.53906 -4.007812,-7.3125 -15.609375,-22.64063 -8.507812,-11.25 -10.476562,-14.27343 -3.234375,-4.92188 -4.710938,-9 -1.40625,-4.14844 -1.40625,-8.36719 0,-7.80469 5.203125,-13.07813 5.203125,-5.27343 12.9375,-5.27343 7.664063,0 13.359375,5.48437 4.289063,4.07813 6.960938,12.16406 2.53125,-8.92968 7.945312,-13.28906 5.414063,-4.42969 11.953125,-4.42969 7.664063,0 12.9375,5.20313 5.34375,5.20312 5.34375,12.375 0,6.39844 -3.09375,13.21875 -3.023437,6.82031 -11.953125,18.07031 -11.53125,14.55469 -16.242187,22.92188 -4.710938,8.36718 -6.890625,16.45312 z"
             id="text2702"
             aria-label="♥" />
        </g>
        <g
           id="use2757"
           transform="rotate(180,372.08526,535.16404)"
           style="fill:#ff0000">
          <path
             style="font-size:144px;line-height:1.25;font-family:'Arial Narrow';-inkscape-font-specification:'Arial Narrow';text-align:center;text-anchor:middle;stroke-width:1px"
             d="m 30.751904,131.15118 10.40625,-1.6875 q 3.234375,20.25 16.382812,20.25 7.101563,0 12.304688,-5.97656 5.203125,-6.04687 5.203125,-15.60937 0,-9 -4.78125,-14.48438 -4.78125,-5.48437 -11.742188,-5.48437 -2.953125,0 -7.3125,1.40625 l 1.195313,-11.109378 1.617187,0.140625 q 7.664063,0 12.445313,-4.710938 4.78125,-4.710937 4.78125,-12.585937 0,-7.242188 -4.007813,-11.601563 -4.007812,-4.429687 -9.773437,-4.429687 -5.976563,0 -10.125,4.640625 -4.078125,4.570312 -5.203125,13.921875 l -10.335938,-2.25 q 1.96875,-13.21875 8.859375,-19.96875 6.890625,-6.75 16.664063,-6.75 10.265625,0 17.4375,7.59375 7.171875,7.59375 7.171875,19.125 0,7.03125 -3.09375,12.445312 -3.023438,5.414063 -8.507813,8.507816 5.0625,1.40625 8.367188,4.64062 3.304687,3.23438 5.34375,8.64844 2.039062,5.41406 2.039062,12.09375 0,14.20312 -8.367187,23.27344 -8.367188,9 -20.039063,9 -10.828125,0 -18.351562,-7.875 -7.523438,-7.875 -8.578125,-21.16407 z"
             id="path1"
             aria-label="3" />
          <path
             style="font-size:144px;line-height:1.25;font-family:'Arial Narrow';-inkscape-font-specification:'Arial Narrow';text-align:center;text-anchor:middle;stroke-width:1px"
             d="m 58.490185,300.04962 q -2.179688,-8.29687 -6.257813,-15.53906 -4.007812,-7.3125 -15.609375,-22.64063 -8.507812,-11.25 -10.476562,-14.27343 -3.234375,-4.92188 -4.710938,-9 -1.40625,-4.14844 -1.40625,-8.36719 0,-7.80469 5.203125,-13.07813 5.203125,-5.27343 12.9375,-5.27343 7.664063,0 13.359375,5.48437 4.289063,4.07813 6.960938,12.16406 2.53125,-8.92968 7.945312,-13.28906 5.414063,-4.42969 11.953125,-4.42969 7.664063,0 12.9375,5.20313 5.34375,5.20312 5.34375,12.375 0,6.39844 -3.09375,13.21875 -3.023437,6.82031 -11.953125,18.07031 -11.53125,14.55469 -16.242187,22.92188 -4.710938,8.36718 -6.890625,16.45312 z"
             id="path2"
             aria-label="♥" />
        </g>
      </g>
      <g
         id="g2392"
         transform="translate(81.970214,0)">
        <path
           style="font-size:250px;line-height:1.25;font-family:Arial;text-align:center;text-anchor:middle;fill:#ff0000;stroke-width:1px"
           d="m 291.74332,313.56897 q -3.78418,-14.4043 -10.86426,-26.97754 -6.95801,-12.69531 -27.09961,-39.30664 -14.77051,-19.53125 -18.18848,-24.78027 -5.61523,-8.54493 -8.17871,-15.625 -2.4414,-7.20215 -2.4414,-14.52637 0,-13.54981 9.0332,-22.70508 9.0332,-9.15527 22.33887,-9.15527 13.42773,0 23.31543,9.52148 7.44628,7.08008 12.08496,21.11817 4.02832,-13.79395 11.35254,-20.9961 10.13183,-9.76562 23.4375,-9.76562 13.18359,0 22.33886,9.15527 9.15528,9.0332 9.15528,21.60645 0,10.98632 -5.3711,22.94922 -5.37109,11.84082 -20.75195,31.12792 -20.01953,25.26856 -29.17481,41.50391 -7.20214,12.81738 -10.98632,26.85547 z"
           id="text2783"
           aria-label="♥" />
        <path
           style="font-size:250px;line-height:1.25;font-family:Arial;text-align:center;text-anchor:middle;fill:#ff0000;stroke-width:1px"
           d="m 291.74332,757.44103 q -3.78418,14.4043 -10.86426,26.97754 -6.95801,12.69531 -27.09961,39.30664 -14.77051,19.53125 -18.18848,24.78027 -5.61523,8.54493 -8.17871,15.625 -2.4414,7.20215 -2.4414,14.52637 0,13.54981 9.0332,22.70508 9.0332,9.15527 22.33887,9.15527 13.42773,0 23.31543,-9.52148 7.44628,-7.08008 12.08496,-21.11817 4.02832,13.79395 11.35254,20.9961 10.13183,9.76562 23.4375,9.76562 13.18359,0 22.33886,-9.15527 9.15528,-9.0332 9.15528,-21.60645 0,-10.98632 -5.3711,-22.94922 -5.37109,-11.84082 -20.75195,-31.12792 -20.01953,-25.26856 -29.17481,-41.50391 -7.20214,-12.81738 -10.98632,-26.85547 z"
           id="use2805"
           aria-label="♥" />
        <path
           style="font-size:250px;line-height:1.25;font-family:Arial;text-align:center;text-anchor:middle;fill:#ff0000;stroke-width:1px"
           d="m 291.74332,613.56897 q -3.78418,-14.4043 -10.86426,-26.97754 -6.95801,-12.69531 -27.09961,-39.30664 -14.77051,-19.53125 -18.18848,-24.78027 -5.61523,-8.54493 -8.17871,-15.625 -2.4414,-7.20215 -2.4414,-14.52637 0,-13.54981 9.0332,-22.70508 9.0332,-9.15527 22.33887,-9.15527 13.42773,0 23.31543,9.52148 7.44628,7.08008 12.08496,21.11817 4.02832,-13.79395 11.35254,-20.9961 10.13183,-9.76562 23.4375,-9.76562 13.18359,0 22.33886,9.15527 9.15528,9.0332 9.15528,21.60645 0,10.98632 -5.3711,22.94922 -5.37109,11.84082 -20.75195,31.12792 -20.01953,25.26856 -29.17481,41.50391 -7.20214,12.81738 -10.98632,26.85547 z"
           id="use2835"
           aria-label="♥" />
      </g>
    </g>
  </g>
</svg>
